<svg width="28" height="25" viewBox="0 0 28 25" fill="none" xmlns="http://www.w3.org/2000/svg">
<path d="M2 0.5C1.17157 0.5 0.5 1.17157 0.5 2C0.5 2.82843 1.17157 3.5 2 3.5V0.5ZM26 3.5C26.8284 3.5 27.5 2.82843 27.5 2C27.5 1.17157 26.8284 0.5 26 0.5V3.5ZM2 21.5C1.17157 21.5 0.5 22.1716 0.5 23C0.5 23.8284 1.17157 24.5 2 24.5V21.5ZM26 24.5C26.8284 24.5 27.5 23.8284 27.5 23C27.5 22.1716 26.8284 21.5 26 21.5V24.5ZM6.09756 11C5.26913 11 4.59756 11.6716 4.59756 12.5C4.59756 13.3284 5.26913 14 6.09756 14V11ZM21.3171 14C22.1455 14 22.8171 13.3284 22.8171 12.5C22.8171 11.6716 22.1455 11 21.3171 11V14ZM2 3.5H26V0.5H2V3.5ZM2 24.5H26V21.5H2V24.5ZM6.09756 14H21.3171V11H6.09756V14Z" fill="white"/>
</svg>
