<svg width="18" height="19" viewBox="0 0 18 19" fill="none" xmlns="http://www.w3.org/2000/svg">
<path d="M17.1371 16.795L12.8473 12.2308C13.9503 10.8894 14.5546 9.20171 14.5546 7.44475C14.5546 3.33978 11.2899 0 7.2773 0C3.26466 0 0 3.33978 0 7.44475C0 11.5497 3.26466 14.8895 7.2773 14.8895C8.7837 14.8895 10.2192 14.4247 11.4466 13.5423L15.7689 18.1412C15.9496 18.3332 16.1926 18.439 16.453 18.439C16.6995 18.439 16.9596 18.3468 17.1371 18.172C17.5142 17.8008 17.5 17.1812 17.1371 16.795ZM7.2773 1.94211C10.2433 1.94211 12.6562 4.41053 12.6562 7.44475C12.6562 10.479 10.2433 12.9474 7.2773 12.9474C4.31132 12.9474 1.89842 10.479 1.89842 7.44475C1.89842 4.41053 4.31132 1.94211 7.2773 1.94211Z" fill="white"/>
</svg>
